<svg viewBox="0 0 24 24" width="30" height="30" xmlns="http://www.w3.org/2000/svg">
  <path d="M 12 3 L 7 8 H 4 C 3.45 8 3 8.45 3 9 V 15 C 3 15.55 3.45 16 4 16 H 7 L 12 21 V 3 Z M 16.5 12 C 16.5 10.76 16.03 9.59 15.28 8.72 L 14.5 9.5 C 15.14 10.26 15.5 11.11 15.5 12 C 15.5 12.89 15.14 13.74 14.5 14.5 L 15.28 15.28 C 16.03 14.41 16.5 13.24 16.5 12 Z M 19.5 12 C 19.5 9.8 18.62 7.82 17.06 6.59 L 16.28 7.37 C 17.56 8.4 18.5 10.11 18.5 12 C 18.5 13.89 17.56 15.6 16.28 16.63 L 17.06 17.41 C 18.62 16.18 19.5 14.2 19.5 12 Z" fill="#1DB954"/>
</svg>
